<svg xmlns="http://www.w3.org/2000/svg" viewBox="0 0 700 410" role="img" aria-label="Схема нефрона"><defs><marker id="a" markerWidth="8" markerHeight="8" refX="7" refY="4" orient="auto"><path d="M0 0L8 4L0 8" fill="none" stroke="#111" stroke-width="1.4"/></marker></defs><rect width="700" height="410" fill="white"/><g fill="none" stroke="#111" stroke-width="2.4" stroke-linecap="round" stroke-linejoin="round"><path d="M75 112c0-48 35-73 78-65 36 7 52 35 44 70-7 29-34 45-66 40-34-5-56-20-56-45z"/><path d="M96 73c26-22 65-4 53 22-9 19-44 5-31-12 13-18 53-2 48 24-5 28-51 33-69 9-14-18-3-38 18-46"/><path d="M197 116c34-5 44-37 69-25 27 13-7 46 22 54 30 8 24-42 52-36 29 6 9 54 20 78v112c0 44 23 70 45 70s45-26 45-70V177c0-32 25-54 47-40 22 14 3 44 25 48 22 4 25-34 9-46-17-13-1-38 20-27 18 10 16 36 42 38h35M608 83v278"/><path d="M75 101l-33-18M195 101l35-20"/><path d="M360 206v48" marker-end="url(#a)"/><path d="M450 279v-48" marker-end="url(#a)"/><path d="M608 218v53" marker-end="url(#a)"/></g><g font-family="Arial,sans-serif" font-size="24" font-weight="700" fill="#111"><text x="126" y="38">1</text><text x="45" y="137">2</text><text x="270" y="76">3</text><text x="392" y="398">4</text><text x="520" y="96">5</text><text x="630" y="190">6</text></g></svg>