<svg xmlns="http://www.w3.org/2000/svg" viewBox="0 0 440 430" role="img" aria-labelledby="t d"><title id="t">Органы цветкового растения</title><desc id="d">На схеме растения номер 1 указывает на подземную разветвлённую часть, 2 — на главную ось над землёй, 3 — на плоскую боковую пластинку с жилками, 4 — на верхнюю структуру с лепестками.</desc><rect width="440" height="430" rx="20" fill="#f5f8f5"/><path d="M30 285H410" stroke="#8e8c65" stroke-width="3" stroke-dasharray="6 5"/><g stroke="#286148" stroke-width="5" fill="none"><path d="M221 315V105 M221 174L292 145 M220 233L133 211 M221 298L183 347L160 364 M221 315L248 352L280 377 M221 315L215 385 M188 342L181 378 M246 349L258 340"/><path d="M287 147Q295 105 352 110Q341 155 287 147Z M146 216Q128 176 72 179Q89 222 146 216Z" fill="#a8d6b7"/><path d="M287 147L338 116 M145 214L87 185" stroke-width="2"/></g><g fill="#ead7ef" stroke="#86538e" stroke-width="2"><ellipse cx="222" cy="70" rx="20" ry="29"/><ellipse cx="190" cy="91" rx="26" ry="18" transform="rotate(25 190 91)"/><ellipse cx="251" cy="91" rx="26" ry="18" transform="rotate(-25 251 91)"/><ellipse cx="204" cy="117" rx="18" ry="26" transform="rotate(35 204 117)"/><ellipse cx="239" cy="116" rx="18" ry="26" transform="rotate(-35 239 116)"/><circle cx="221" cy="96" r="16" fill="#e4c861"/></g><g stroke="#334d42" stroke-width="2"><path d="M322 354L249 349 M321 244L222 235 M376 166L323 136"/><path d="M322 62L252 88"/></g><g font-family="sans-serif" font-size="25" fill="#183f30" font-weight="700"><text x="336" y="362">1</text><text x="336" y="252">2</text><text x="386" y="174">3</text><text x="336" y="70">4</text></g></svg>
