<svg xmlns="http://www.w3.org/2000/svg" viewBox="0 0 800 430" role="img" aria-labelledby="t d"><title id="t">Схема животных с номерами</title><desc id="d">1 акула, 2 лягушка, 3 голубь, 4 паук.</desc><rect width="800" height="430" rx="28" fill="#f7fbff"/><g font-family="Arial,sans-serif" font-size="26" font-weight="700" fill="#17324d"><g transform="translate(80 85)"><path d="M20 70c70-60 150-55 205 0-55 55-135 60-205 0zm205 0 52-38-12 38 12 38z" fill="#8fc1e3" stroke="#275b7a" stroke-width="6"/><circle cx="66" cy="62" r="6"/><text x="112" y="150">1</text></g><g transform="translate(430 78)"><ellipse cx="110" cy="75" rx="72" ry="44" fill="#9bd18b" stroke="#356934" stroke-width="6"/><circle cx="62" cy="42" r="20" fill="#9bd18b" stroke="#356934" stroke-width="5"/><circle cx="158" cy="42" r="20" fill="#9bd18b" stroke="#356934" stroke-width="5"/><path d="M55 105l-45 55m145-55 45 55" stroke="#356934" stroke-width="10" stroke-linecap="round"/><text x="102" y="170">2</text></g><g transform="translate(85 250)"><ellipse cx="110" cy="55" rx="78" ry="42" fill="#ddd" stroke="#555" stroke-width="6"/><circle cx="183" cy="43" r="28" fill="#ddd" stroke="#555" stroke-width="6"/><path d="M210 43l38 12-38 12" fill="#e0a43a"/><path d="M75 55c35-48 80-55 108-8-40 12-70 28-108 8z" fill="#aaa"/><path d="M65 94l-12 38m100-38 12 38" stroke="#555" stroke-width="7"/><text x="106" y="155">3</text></g><g transform="translate(470 250)"><circle cx="100" cy="65" r="42" fill="#8d6e63" stroke="#4e342e" stroke-width="6"/><circle cx="150" cy="65" r="30" fill="#8d6e63" stroke="#4e342e" stroke-width="6"/><g stroke="#4e342e" stroke-width="7" stroke-linecap="round"><path d="M75 35L35 5M72 50L20 38M72 78L20 92M80 95L42 128M128 35l38-32m-36 48 52-16m-52 43 52 18m-47 0 40 34"/></g><text x="112" y="150">4</text></g></g></svg>