<svg xmlns="http://www.w3.org/2000/svg" viewBox="0 0 800 430" role="img" aria-labelledby="t d"><title id="t">Схема органов и структур человека</title><desc id="d">1 нефрон, 2 альвеола, 3 сердце, 4 нейрон.</desc><rect width="800" height="430" rx="28" fill="#fff8f5"/><g font-family="Arial,sans-serif" font-size="28" font-weight="700" fill="#3a241d"><g transform="translate(75 65)"><path d="M80 20c-55 20-63 105-15 137 27 18 68 3 75-30 4-20-9-36-30-42-26-8-39-25-30-65z" fill="#d97c7c" stroke="#7a3535" stroke-width="6"/><path d="M105 90c35 8 56 32 56 72 0 42-25 73-56 90" fill="none" stroke="#7a3535" stroke-width="7"/><text x="92" y="205">1</text></g><g transform="translate(330 65)"><circle cx="95" cy="80" r="52" fill="#ffd6e7" stroke="#a84c75" stroke-width="6"/><circle cx="145" cy="70" r="40" fill="#ffd6e7" stroke="#a84c75" stroke-width="6"/><circle cx="125" cy="120" r="42" fill="#ffd6e7" stroke="#a84c75" stroke-width="6"/><path d="M80 130c-30 30-36 65-25 92" fill="none" stroke="#a84c75" stroke-width="8"/><text x="108" y="205">2</text></g><g transform="translate(565 55)"><path d="M95 35c-28-42-90-18-86 35 4 54 86 104 86 104s82-50 86-104c4-53-58-77-86-35z" fill="#e55353" stroke="#8b1f1f" stroke-width="6"/><text x="87" y="208">3</text></g><g transform="translate(190 285)"><circle cx="80" cy="45" r="24" fill="#f1c56b" stroke="#815b10" stroke-width="5"/><path d="M104 45h140m-165-20-55-30m55 60-60 35m225-45 80-35m-80 35 80 35" stroke="#815b10" stroke-width="7" stroke-linecap="round"/><text x="156" y="115">4</text></g></g></svg>