<svg xmlns="http://www.w3.org/2000/svg" viewBox="0 0 720 480" role="img" aria-labelledby="title desc" preserveAspectRatio="xMidYMid meet">
<title id="title">Эндокринные железы</title><desc id="desc">Положение основных желёз внутренней секреции и перенос гормонов кровью.</desc>
<defs><marker id="arrow" viewBox="0 0 10 10" refX="8" refY="5" markerWidth="6" markerHeight="6" orient="auto-start-reverse"><path d="M0 0 L10 5 L0 10z" fill="#24594f"/></marker></defs>
<style>.label{font:600 14px Arial,sans-serif;text-anchor:middle;fill:#173b35}.num{font:12px Arial,sans-serif;text-anchor:middle;fill:#58716c}.link{fill:none;stroke:#24594f;stroke-width:2}</style>
<rect width="100%" height="100%" rx="20" fill="#f8fcfb"/><text x="360" y="45" style="font:700 24px Arial,sans-serif;text-anchor:middle;fill:#173b35">Эндокринные железы</text>
<path d="M 351 117 H 366" class="link" marker-end="url(#arrow)"/><path d="M 194 146 V 165" class="link" marker-end="url(#arrow)"/><path d="M 351 199 H 366" class="link" marker-end="url(#arrow)"/><path d="M 194 228 V 247" class="link" marker-end="url(#arrow)"/><path d="M 351 281 H 366" class="link" marker-end="url(#arrow)"/><path d="M 194 310 V 329" class="link" marker-end="url(#arrow)"/><g><rect x="40" y="88" width="308" height="64" rx="12" fill="#d9f3ec" stroke="#24594f" stroke-width="2"/><text x="194" y="110" class="label"><tspan x="194" dy="0">гипофиз</tspan></text><text x="194" y="144" class="num">1</text></g><g><rect x="372" y="88" width="308" height="64" rx="12" fill="#fff0c9" stroke="#24594f" stroke-width="2"/><text x="526" y="110" class="label"><tspan x="526" dy="0">щитовидная железа</tspan></text><text x="526" y="144" class="num">2</text></g><g><rect x="40" y="170" width="308" height="64" rx="12" fill="#deebff" stroke="#24594f" stroke-width="2"/><text x="194" y="192" class="label"><tspan x="194" dy="0">паращитовидные железы</tspan></text><text x="194" y="226" class="num">3</text></g><g><rect x="372" y="170" width="308" height="64" rx="12" fill="#d9f3ec" stroke="#24594f" stroke-width="2"/><text x="526" y="192" class="label"><tspan x="526" dy="0">надпочечники</tspan></text><text x="526" y="226" class="num">4</text></g><g><rect x="40" y="252" width="308" height="64" rx="12" fill="#fff0c9" stroke="#24594f" stroke-width="2"/><text x="194" y="274" class="label"><tspan x="194" dy="0">поджелудочные островки</tspan></text><text x="194" y="308" class="num">5</text></g><g><rect x="372" y="252" width="308" height="64" rx="12" fill="#deebff" stroke="#24594f" stroke-width="2"/><text x="526" y="274" class="label"><tspan x="526" dy="0">яичники</tspan></text><text x="526" y="308" class="num">6</text></g><g><rect x="40" y="334" width="308" height="64" rx="12" fill="#d9f3ec" stroke="#24594f" stroke-width="2"/><text x="194" y="356" class="label"><tspan x="194" dy="0">семенники</tspan></text><text x="194" y="390" class="num">7</text></g>
<text x="360" y="458" style="font:14px Arial,sans-serif;text-anchor:middle;fill:#46645e">Номера задают порядок чтения или сопоставления подписей</text></svg>
