<svg xmlns="http://www.w3.org/2000/svg" viewBox="0 0 800 580" role="img" aria-labelledby="title desc" preserveAspectRatio="xMidYMid meet"><title id="title">Строение зуба</title><desc id="desc">Продольный разрез зуба: коронка, шейка, корень, эмаль, дентин, пульпа и канал.</desc><defs><marker id="arrow" viewBox="0 0 10 10" refX="8" refY="5" markerWidth="6" markerHeight="6" orient="auto"><path d="M0 0L10 5L0 10z" fill="#244f49"/></marker><style>.t{font:600 16px Arial,sans-serif;fill:#173b35}.s{font:14px Arial,sans-serif;fill:#173b35}.lead{fill:none;stroke:#244f49;stroke-width:2}.flow{fill:none;stroke:#176b5b;stroke-width:4;marker-end:url(#arrow)}.organ{stroke:#244f49;stroke-width:3}.red{fill:#f7a4a4}.blue{fill:#9bc8ef}.cream{fill:#fff0c9}.green{fill:#b9e4d7}</style></defs><rect width="800" height="580" rx="22" fill="#f8fcfb"/><text x="400" y="36" text-anchor="middle" class="t" font-size="23">Строение зуба</text><path d="M260 75Q190 130 235 250L290 300L310 500Q330 555 365 465L400 350L435 465Q470 555 490 500L510 300L565 250Q610 130 540 75Q470 30 400 85Q330 30 260 75Z" fill="#fff" class="organ"/><path d="M285 105Q240 155 275 230L330 275L345 410L400 300L455 410L470 275L525 230Q560 155 515 105Q455 70 400 120Q345 70 285 105Z" fill="#efd59d"/><path d="M365 140Q330 210 365 275L400 320L435 275Q470 210 435 140Z" fill="#e68b8b"/><path d="M400 320V500" stroke="#e68b8b" stroke-width="18"/><path d="M160 285H640" stroke="#bd8a6c" stroke-width="22"/><text x="80" y="115" class="t">эмаль</text><path d="M150 110L260 105" class="lead"/><text x="70" y="205" class="t">дентин</text><path d="M145 200L290 190" class="lead"/><text x="560" y="165" class="t">пульпа</text><path d="M550 170L435 190" class="lead"/><text x="80" y="275" class="t">шейка</text><text x="335" y="545" class="t">корень и канал</text></svg>
